<?xml version="1.0" encoding="utf-8"?>
<!-- Generator: Adobe Illustrator 24.1.1, SVG Export Plug-In . SVG Version: 6.00 Build 0)  -->
<svg version="1.1" id="Capa_1" xmlns="http://www.w3.org/2000/svg" xmlns:xlink="http://www.w3.org/1999/xlink" x="0px" y="0px"
	 viewBox="0 0 595.28 136.54" style="enable-background:new 0 0 595.28 136.54;" xml:space="preserve">
<style type="text/css">
	.st0{fill:#006AA5;stroke:#006AB0;stroke-miterlimit:10;}
	.st1{fill:#7C7B7B;stroke:#7C7B7B;stroke-miterlimit:10;}
	.st2{fill:none;stroke:#7C7B7B;stroke-width:0.25;stroke-miterlimit:10;}
	.st3{fill:#575757;}
	.st4{fill:#0095D4;}
	.st5{fill:#006AA5;stroke:#006AB0;stroke-width:0.1;stroke-miterlimit:10;}
	.st6{fill:#006AA5;stroke:#006AB0;stroke-width:0.2;stroke-miterlimit:10;}
</style>
<g>
	<path class="st0" d="M196.39,37.56h5.24l19.33,31.79V37.56h9.56v46.28H220.4l-19.33-31.79v31.79h-9.56V42.53
		C191.5,39.87,193.66,37.56,196.39,37.56z"/>
	<path class="st0" d="M325.4,36.85l-14.87,22.6l14.87,23.69h-11.31l-9.7-16.06l-9.63,16.06h-11.24l14.87-23.69l-14.87-22.6h11.24
		l9.63,16.27l8.31-13.88c0.84-1.57,2.23-2.38,4.26-2.38H325.4z"/>
	<path class="st1" d="M382.27,37.56h9.42l9.56,35.26l9.28-35.26h14.45v46.28h-9.14V46.47l-9.7,37.37h-9.91l-9.7-37.37v37.37h-9.14
		V42.53C377.38,39.87,379.54,37.56,382.27,37.56z"/>
	<path class="st1" d="M430.08,42.53c0-3.2,1.61-4.9,4.89-4.97h29.46v8.03h-24.78v9.94h18.5v3.06c0.07,3.2-1.6,4.76-5.02,4.76h-13.47
		v11.98h24.78v8.51h-34.34V42.53z"/>
	<path class="st1" d="M509.37,60.7c0,11.37-5.03,19.8-14.17,22.19c-2.37,0.61-5.72,0.95-10.05,0.95h-15.98V42.53
		c0-3.2,1.6-4.9,4.89-4.97h13.68C502.81,37.56,509.37,45.93,509.37,60.7z M487.73,45.66h-9v29.81h7.75
		c9.63,0,12.98-5.03,12.98-14.77C499.46,51.44,496.53,45.66,487.73,45.66z"/>
	<path class="st1" d="M513.84,42.53c0-3.27,1.6-4.97,4.89-4.97h4.82v46.28h-9.7V42.53z"/>
	<path class="st1" d="M549.78,84.52c-14.59,0-21.85-9.39-21.85-23.82c0-14.91,7.68-23.89,22.69-23.89c5.79,0,10.47,1.36,14.03,4.22
		c3.35,2.93,5.23,6.94,5.72,11.98h-5.86c-2.1,0-3.63-0.95-4.54-2.79c-1.61-3.34-4.75-5.04-9.35-5.04c-9,0-12.98,6.2-12.98,15.52
		c0,9.05,3.84,15.45,12.7,15.45c6.07,0,9.56-3.27,10.61-8.37h9.42C569.47,78.46,561.79,84.52,549.78,84.52z"/>
	<g>
		<path class="st0" d="M240.85,41.81c0-3.2,1.61-4.9,4.89-4.97h29.46v8.03h-24.78v9.94h18.5v3.06c0.07,3.2-1.61,4.77-5.03,4.77
			h-13.47v11.98h24.78v8.51h-34.35V41.81z"/>
	</g>
	<g>
		<path class="st0" d="M350.68,39.74c0,1.23-0.05,2.45,0.01,3.67c0.09,1.68-0.8,2.36-2.4,2.37c-2.44,0.01-4.89,0.07-7.33-0.01
			c-1.82-0.06-2.52,0.73-2.46,2.45c0.06,2.11,0.01,4.22,0.02,6.33c0.01,2.48,0.27,2.74,2.73,2.75c2.23,0.02,4.47,0.04,6.7,0
			c1.89-0.03,2.85,0.67,2.75,2.66c-0.11,2.24,0.03,4.49-0.04,6.74c-0.05,1.7,0.6,2.55,2.42,2.51c2.44-0.05,4.89-0.03,7.33-0.01
			c1.56,0.01,2.29-0.64,2.25-2.22c-0.07-2.45,0.01-4.9-0.02-7.35c-0.02-1.54,0.76-2.28,2.27-2.3c2.51-0.03,5.03,0.01,7.54-0.02
			c1.85-0.03,2.59,0.76,2.58,2.6c-0.02,10.95-8.58,21.37-19.78,23.96c-14.44,3.34-28.88-5.4-31.89-19.3
			c-3.06-14.12,6.13-27.85,20.73-30.47C351.52,32.75,350.7,33.17,350.68,39.74z"/>
		<path class="st0" d="M356.47,30.02c-6.14,0.05-6.08,0.41-6-5.89c0.01-1.09-0.02-2.17,0.01-3.26c0.04-2.1,0.76-2.85,2.85-2.88
			c2.23-0.03,4.46,0.02,6.68-0.01c1.89-0.03,2.85,0.79,2.83,2.68c-0.03,2.24-0.04,4.48,0,6.72c0.03,1.91-0.91,2.72-2.82,2.65
			C358.84,29.98,357.65,30.02,356.47,30.02z"/>
	</g>
	<line class="st2" x1="179.82" y1="-4.75" x2="179.82" y2="149.97"/>
	<g>
		<g>
			<path class="st3" d="M191.24,102.87l1.01-0.59c0.71,1.27,1.53,1.91,2.46,1.91c0.4,0,0.77-0.09,1.12-0.27
				c0.35-0.18,0.61-0.42,0.8-0.73c0.18-0.3,0.27-0.63,0.27-0.97c0-0.39-0.13-0.77-0.4-1.14c-0.37-0.51-1.05-1.13-2.03-1.86
				c-0.99-0.73-1.6-1.26-1.85-1.58c-0.42-0.54-0.63-1.13-0.63-1.77c0-0.5,0.12-0.96,0.37-1.38c0.25-0.41,0.6-0.74,1.04-0.98
				c0.45-0.24,0.94-0.36,1.46-0.36c0.56,0,1.08,0.14,1.57,0.4c0.49,0.27,1,0.77,1.54,1.49l-0.97,0.72
				c-0.45-0.58-0.83-0.96-1.14-1.14c-0.31-0.18-0.66-0.28-1.03-0.28c-0.48,0-0.87,0.14-1.17,0.43c-0.3,0.28-0.46,0.63-0.46,1.04
				c0,0.25,0.05,0.5,0.16,0.73c0.11,0.24,0.3,0.49,0.59,0.77c0.16,0.15,0.67,0.53,1.53,1.16c1.03,0.74,1.73,1.4,2.11,1.97
				c0.38,0.58,0.57,1.16,0.57,1.74c0,0.84-0.33,1.57-0.98,2.19c-0.65,0.62-1.45,0.93-2.38,0.93c-0.72,0-1.37-0.19-1.96-0.56
				C192.28,104.37,191.74,103.75,191.24,102.87z"/>
			<path class="st3" d="M206.34,93.16c1.8,0,3.3,0.58,4.51,1.75c1.21,1.17,1.82,2.61,1.82,4.32c0,1.69-0.6,3.13-1.81,4.31
				c-1.21,1.18-2.68,1.77-4.42,1.77c-1.76,0-3.24-0.59-4.45-1.76c-1.21-1.17-1.82-2.59-1.82-4.26c0-1.11,0.28-2.14,0.83-3.09
				c0.55-0.95,1.3-1.69,2.26-2.23C204.2,93.43,205.23,93.16,206.34,93.16z M206.39,94.29c-0.88,0-1.71,0.22-2.5,0.67
				c-0.79,0.45-1.4,1.05-1.84,1.8c-0.44,0.75-0.66,1.6-0.66,2.53c0,1.37,0.49,2.54,1.47,3.48c0.98,0.95,2.16,1.42,3.53,1.42
				c0.92,0,1.77-0.22,2.56-0.65c0.78-0.44,1.4-1.03,1.83-1.79c0.44-0.76,0.66-1.6,0.66-2.52c0-0.92-0.22-1.75-0.66-2.49
				c-0.44-0.74-1.06-1.34-1.85-1.78C208.13,94.51,207.29,94.29,206.39,94.29z"/>
			<path class="st3" d="M215.04,93.45h2.36c1.36,0,2.27,0.06,2.74,0.17c0.68,0.16,1.23,0.5,1.66,1c0.43,0.51,0.65,1.14,0.65,1.91
				c0,0.77-0.21,1.41-0.63,1.91c-0.42,0.5-1,0.84-1.73,1.01c-0.54,0.13-1.54,0.19-3.02,0.19h-0.85v5.38h-1.18V93.45z M216.22,94.59
				v3.92l2.01,0.02c0.81,0,1.41-0.07,1.78-0.21c0.38-0.14,0.67-0.38,0.89-0.7c0.21-0.32,0.32-0.68,0.32-1.08
				c0-0.39-0.11-0.74-0.32-1.06c-0.21-0.32-0.5-0.55-0.85-0.69c-0.35-0.14-0.93-0.2-1.73-0.2H216.22z"/>
			<path class="st3" d="M230.47,93.16c1.8,0,3.3,0.58,4.51,1.75c1.21,1.17,1.82,2.61,1.82,4.32c0,1.69-0.6,3.13-1.81,4.31
				c-1.21,1.18-2.68,1.77-4.42,1.77c-1.76,0-3.24-0.59-4.45-1.76c-1.21-1.17-1.82-2.59-1.82-4.26c0-1.11,0.28-2.14,0.83-3.09
				c0.55-0.95,1.3-1.69,2.26-2.23C228.33,93.43,229.36,93.16,230.47,93.16z M230.52,94.29c-0.88,0-1.71,0.22-2.5,0.67
				c-0.79,0.45-1.4,1.05-1.84,1.8c-0.44,0.75-0.66,1.6-0.66,2.53c0,1.37,0.49,2.54,1.47,3.48c0.98,0.95,2.16,1.42,3.53,1.42
				c0.92,0,1.77-0.22,2.56-0.65c0.78-0.44,1.4-1.03,1.83-1.79c0.44-0.76,0.66-1.6,0.66-2.52c0-0.92-0.22-1.75-0.66-2.49
				c-0.44-0.74-1.06-1.34-1.85-1.78C232.26,94.51,231.42,94.29,230.52,94.29z"/>
			<path class="st3" d="M239.24,93.45h2.36c1.32,0,2.21,0.05,2.68,0.16c0.7,0.16,1.28,0.49,1.72,1.01c0.44,0.52,0.66,1.15,0.66,1.91
				c0,0.63-0.15,1.18-0.46,1.66c-0.3,0.48-0.74,0.84-1.3,1.08c-0.56,0.25-1.34,0.37-2.34,0.38l4.27,5.37h-1.47l-4.27-5.37h-0.67
				v5.37h-1.19V93.45z M240.42,94.59v3.93l2.04,0.01c0.79,0,1.38-0.07,1.76-0.22c0.38-0.15,0.68-0.38,0.89-0.7
				c0.21-0.32,0.32-0.68,0.32-1.08c0-0.39-0.11-0.74-0.32-1.06c-0.21-0.32-0.5-0.54-0.85-0.68c-0.35-0.14-0.93-0.2-1.74-0.2H240.42z
				"/>
			<path class="st3" d="M248.02,94.59v-1.13h6.5v1.13h-2.65v10.43h-1.21V94.59H248.02z"/>
			<path class="st3" d="M256.24,93.45h6.8v1.13h-5.61v3.63h5.56v1.13h-5.56v4.55h5.56v1.13h-6.75V93.45z"/>
			<path class="st3" d="M269.66,93.45h6.8v1.13h-5.61v3.63h5.56v1.13h-5.56v4.55h5.56v1.13h-6.75V93.45z"/>
			<path class="st3" d="M278.52,105.02V93.45h0.26l7.89,8.87v-8.87h1.17v11.57h-0.27l-7.83-8.76v8.76H278.52z"/>
			<path class="st3" d="M294.12,94.59v-1.13h6.5v1.13h-2.65v10.43h-1.21V94.59H294.12z"/>
			<path class="st3" d="M302.34,93.45h6.8v1.13h-5.61v3.63h5.56v1.13h-5.56v4.55h5.56v1.13h-6.75V93.45z"/>
			<path class="st3" d="M322.23,95.6l-0.94,0.7c-0.52-0.65-1.14-1.15-1.86-1.49c-0.72-0.34-1.52-0.51-2.38-0.51
				c-0.95,0-1.82,0.22-2.63,0.66c-0.81,0.44-1.43,1.04-1.88,1.78c-0.44,0.75-0.66,1.59-0.66,2.52c0,1.41,0.49,2.59,1.49,3.53
				c0.99,0.94,2.24,1.41,3.75,1.41c1.66,0,3.05-0.63,4.17-1.9l0.94,0.69c-0.59,0.73-1.33,1.3-2.21,1.7c-0.88,0.4-1.87,0.6-2.96,0.6
				c-2.07,0-3.71-0.67-4.91-2.02c-1-1.14-1.51-2.51-1.51-4.12c0-1.69,0.61-3.12,1.83-4.27c1.22-1.16,2.74-1.73,4.58-1.73
				c1.11,0,2.11,0.21,3,0.64C320.93,94.23,321.66,94.83,322.23,95.6z"/>
			<path class="st3" d="M324.62,105.02V93.45h0.26l7.89,8.87v-8.87h1.17v11.57h-0.27l-7.83-8.76v8.76H324.62z"/>
			<path class="st3" d="M342.47,93.16c1.8,0,3.3,0.58,4.51,1.75c1.21,1.17,1.82,2.61,1.82,4.32c0,1.69-0.6,3.13-1.81,4.31
				c-1.21,1.18-2.68,1.77-4.42,1.77c-1.76,0-3.24-0.59-4.45-1.76c-1.21-1.17-1.82-2.59-1.82-4.26c0-1.11,0.28-2.14,0.83-3.09
				c0.55-0.95,1.3-1.69,2.26-2.23C340.34,93.43,341.37,93.16,342.47,93.16z M342.53,94.29c-0.88,0-1.71,0.22-2.5,0.67
				c-0.79,0.45-1.4,1.05-1.84,1.8c-0.44,0.75-0.66,1.6-0.66,2.53c0,1.37,0.49,2.54,1.47,3.48c0.98,0.95,2.16,1.42,3.53,1.42
				c0.92,0,1.77-0.22,2.56-0.65c0.78-0.44,1.4-1.03,1.83-1.79c0.44-0.76,0.66-1.6,0.66-2.52c0-0.92-0.22-1.75-0.66-2.49
				c-0.44-0.74-1.06-1.34-1.85-1.78C344.27,94.51,343.42,94.29,342.53,94.29z"/>
			<path class="st3" d="M351.18,93.45h1.18v10.45h4.56v1.12h-5.75V93.45z"/>
			<path class="st3" d="M364.46,93.16c1.8,0,3.3,0.58,4.51,1.75c1.21,1.17,1.82,2.61,1.82,4.32c0,1.69-0.6,3.13-1.81,4.31
				c-1.21,1.18-2.68,1.77-4.42,1.77c-1.76,0-3.24-0.59-4.45-1.76s-1.82-2.59-1.82-4.26c0-1.11,0.28-2.14,0.83-3.09
				c0.55-0.95,1.3-1.69,2.26-2.23C362.32,93.43,363.35,93.16,364.46,93.16z M364.51,94.29c-0.88,0-1.71,0.22-2.5,0.67
				c-0.79,0.45-1.4,1.05-1.84,1.8c-0.44,0.75-0.66,1.6-0.66,2.53c0,1.37,0.49,2.54,1.47,3.48c0.98,0.95,2.16,1.42,3.53,1.42
				c0.92,0,1.77-0.22,2.56-0.65c0.78-0.44,1.4-1.03,1.83-1.79c0.44-0.76,0.66-1.6,0.66-2.52c0-0.92-0.22-1.75-0.66-2.49
				c-0.44-0.74-1.06-1.34-1.85-1.78C366.25,94.51,365.4,94.29,364.51,94.29z"/>
			<path class="st3" d="M384.6,95.4l-0.92,0.85c-0.66-0.64-1.39-1.12-2.17-1.44c-0.79-0.33-1.56-0.49-2.3-0.49
				c-0.93,0-1.82,0.22-2.66,0.67c-0.84,0.45-1.49,1.05-1.96,1.81c-0.46,0.76-0.69,1.57-0.69,2.42c0,0.87,0.24,1.7,0.72,2.48
				c0.48,0.78,1.14,1.4,1.98,1.85c0.84,0.45,1.77,0.67,2.77,0.67c1.22,0,2.25-0.34,3.1-1.01s1.34-1.54,1.5-2.61h-3.78v-1.12h5.11
				c-0.01,1.79-0.55,3.21-1.63,4.26c-1.08,1.05-2.52,1.58-4.33,1.58c-2.19,0-3.93-0.73-5.21-2.19c-0.98-1.12-1.48-2.42-1.48-3.89
				c0-1.1,0.28-2.11,0.85-3.06c0.56-0.94,1.34-1.68,2.32-2.21c0.98-0.53,2.1-0.8,3.34-0.8c1,0,1.95,0.18,2.84,0.53
				C382.89,94.05,383.76,94.61,384.6,95.4z"/>
			<path class="st3" d="M388.54,90.12h1.73l-2.38,2.42h-1.11L388.54,90.12z M387.39,93.45h1.19v11.57h-1.19V93.45z"/>
			<path class="st3" d="M396.14,93.45l5.53,11.57h-1.28l-1.87-3.81h-5.11l-1.85,3.81h-1.32l5.6-11.57H396.14z M395.99,95.91
				l-2.03,4.19h4.05L395.99,95.91z"/>
			<path class="st3" d="M407.15,93.45h1.36l3.03,4.77l2.99-4.77h1.37l-3.76,6.04v5.53h-1.17v-5.53L407.15,93.45z"/>
			<path class="st3" d="M422.44,93.45h6.8v1.13h-5.61v3.63h5.56v1.13h-5.56v4.55h5.56v1.13h-6.75V93.45z"/>
			<path class="st3" d="M441.22,103.76l1.76,2.17h-1.46l-1.21-1.5c-0.97,0.58-2.06,0.87-3.27,0.87c-1.76,0-3.24-0.59-4.45-1.76
				c-1.21-1.17-1.81-2.59-1.81-4.26c0-1.11,0.28-2.14,0.83-3.09c0.55-0.95,1.31-1.69,2.26-2.23c0.95-0.53,2-0.8,3.14-0.8
				c1.76,0,3.24,0.59,4.44,1.76c1.21,1.17,1.81,2.61,1.81,4.32c0,0.89-0.16,1.71-0.5,2.44
				C442.44,102.43,441.92,103.12,441.22,103.76z M440.49,102.86c1.03-0.98,1.55-2.19,1.55-3.63c0-0.92-0.22-1.75-0.66-2.49
				c-0.44-0.74-1.06-1.34-1.85-1.78c-0.8-0.45-1.63-0.67-2.52-0.67c-0.89,0-1.72,0.22-2.51,0.67c-0.79,0.44-1.4,1.04-1.84,1.8
				c-0.44,0.76-0.66,1.6-0.66,2.53c0,1.37,0.49,2.54,1.46,3.48c0.97,0.95,2.15,1.42,3.52,1.42c0.94,0,1.8-0.22,2.58-0.67l-2.64-3.27
				h1.44L440.49,102.86z"/>
			<path class="st3" d="M445.71,93.45h1.19v6.98c0,0.83,0.02,1.34,0.05,1.55c0.06,0.46,0.2,0.84,0.41,1.14
				c0.21,0.31,0.55,0.56,0.99,0.77c0.45,0.21,0.9,0.31,1.35,0.31c0.39,0,0.77-0.08,1.13-0.24c0.36-0.16,0.66-0.39,0.9-0.68
				c0.24-0.29,0.42-0.64,0.53-1.04c0.08-0.29,0.12-0.9,0.12-1.81v-6.98h1.18v6.98c0,1.03-0.1,1.87-0.31,2.5
				c-0.21,0.64-0.62,1.19-1.24,1.66c-0.62,0.47-1.37,0.71-2.25,0.71c-0.96,0-1.78-0.22-2.46-0.67c-0.68-0.45-1.14-1.03-1.37-1.77
				c-0.14-0.45-0.22-1.26-0.22-2.44V93.45z"/>
			<path class="st3" d="M456.31,93.45h1.19v11.57h-1.19V93.45z"/>
			<path class="st3" d="M460.21,93.45h2.36c1.36,0,2.27,0.06,2.74,0.17c0.68,0.16,1.23,0.5,1.66,1c0.43,0.51,0.65,1.14,0.65,1.91
				c0,0.77-0.21,1.41-0.63,1.91c-0.42,0.5-1,0.84-1.73,1.01c-0.54,0.13-1.54,0.19-3.02,0.19h-0.85v5.38h-1.18V93.45z M461.39,94.59
				v3.92l2.01,0.02c0.81,0,1.41-0.07,1.78-0.21c0.38-0.14,0.67-0.38,0.89-0.7c0.21-0.32,0.32-0.68,0.32-1.08
				c0-0.39-0.11-0.74-0.32-1.06c-0.21-0.32-0.5-0.55-0.85-0.69c-0.35-0.14-0.93-0.2-1.73-0.2H461.39z"/>
			<path class="st3" d="M475.64,93.16c1.8,0,3.3,0.58,4.51,1.75c1.21,1.17,1.82,2.61,1.82,4.32c0,1.69-0.6,3.13-1.81,4.31
				c-1.21,1.18-2.68,1.77-4.42,1.77c-1.76,0-3.24-0.59-4.45-1.76c-1.21-1.17-1.82-2.59-1.82-4.26c0-1.11,0.28-2.14,0.83-3.09
				c0.55-0.95,1.3-1.69,2.26-2.23C473.5,93.43,474.53,93.16,475.64,93.16z M475.69,94.29c-0.88,0-1.71,0.22-2.5,0.67
				c-0.79,0.45-1.4,1.05-1.84,1.8c-0.44,0.75-0.66,1.6-0.66,2.53c0,1.37,0.49,2.54,1.47,3.48c0.98,0.95,2.16,1.42,3.53,1.42
				c0.92,0,1.77-0.22,2.56-0.65c0.78-0.44,1.4-1.03,1.83-1.79c0.44-0.76,0.66-1.6,0.66-2.52c0-0.92-0.22-1.75-0.66-2.49
				c-0.44-0.74-1.06-1.34-1.85-1.78C477.43,94.51,476.58,94.29,475.69,94.29z"/>
			<path class="st3" d="M483.12,102.87l1.01-0.59c0.71,1.27,1.53,1.91,2.46,1.91c0.4,0,0.77-0.09,1.12-0.27
				c0.35-0.18,0.61-0.42,0.8-0.73c0.18-0.3,0.27-0.63,0.27-0.97c0-0.39-0.13-0.77-0.4-1.14c-0.37-0.51-1.05-1.13-2.03-1.86
				c-0.99-0.73-1.6-1.26-1.85-1.58c-0.42-0.54-0.63-1.13-0.63-1.77c0-0.5,0.12-0.96,0.37-1.38c0.25-0.41,0.6-0.74,1.04-0.98
				c0.45-0.24,0.94-0.36,1.46-0.36c0.56,0,1.08,0.14,1.57,0.4c0.49,0.27,1,0.77,1.54,1.49l-0.97,0.72
				c-0.45-0.58-0.83-0.96-1.14-1.14c-0.31-0.18-0.66-0.28-1.03-0.28c-0.48,0-0.87,0.14-1.17,0.43c-0.3,0.28-0.46,0.63-0.46,1.04
				c0,0.25,0.05,0.5,0.16,0.73c0.11,0.24,0.3,0.49,0.59,0.77c0.15,0.15,0.67,0.53,1.53,1.16c1.03,0.74,1.73,1.4,2.11,1.97
				c0.38,0.58,0.57,1.16,0.57,1.74c0,0.84-0.33,1.57-0.98,2.19c-0.65,0.62-1.45,0.93-2.38,0.93c-0.72,0-1.37-0.19-1.96-0.56
				C484.15,104.37,483.61,103.75,483.12,102.87z"/>
			<path class="st3" d="M496.6,105.02l1.7-11.57h0.19l4.82,9.49l4.78-9.49h0.19l1.71,11.57h-1.16l-1.17-8.27l-4.19,8.27h-0.3
				l-4.25-8.33l-1.17,8.33H496.6z"/>
			<path class="st3" d="M512.32,93.45h6.8v1.13h-5.61v3.63h5.56v1.13h-5.56v4.55h5.56v1.13h-6.75V93.45z M516.34,90.12h1.73
				l-2.38,2.42h-1.11L516.34,90.12z"/>
			<path class="st3" d="M521.17,105.02V93.45h2.46c1.77,0,3.06,0.14,3.86,0.42c1.15,0.39,2.05,1.07,2.7,2.04
				c0.65,0.97,0.97,2.13,0.97,3.47c0,1.16-0.26,2.18-0.77,3.06s-1.18,1.53-2,1.95c-0.82,0.42-1.97,0.63-3.45,0.63H521.17z
				 M522.31,103.93h1.37c1.64,0,2.78-0.1,3.41-0.3c0.89-0.28,1.59-0.79,2.1-1.53c0.51-0.74,0.77-1.63,0.77-2.7
				c0-1.12-0.28-2.07-0.83-2.86c-0.55-0.79-1.33-1.33-2.31-1.63c-0.74-0.22-1.96-0.33-3.67-0.33h-0.84V103.93z"/>
			<path class="st3" d="M533.29,93.45h1.19v11.57h-1.19V93.45z"/>
			<path class="st3" d="M548.24,95.6l-0.94,0.7c-0.52-0.65-1.14-1.15-1.86-1.49c-0.72-0.34-1.52-0.51-2.38-0.51
				c-0.95,0-1.82,0.22-2.63,0.66c-0.81,0.44-1.43,1.04-1.88,1.78c-0.44,0.75-0.66,1.59-0.66,2.52c0,1.41,0.49,2.59,1.49,3.53
				c0.99,0.94,2.24,1.41,3.75,1.41c1.66,0,3.05-0.63,4.17-1.9l0.94,0.69c-0.59,0.73-1.33,1.3-2.21,1.7c-0.88,0.4-1.87,0.6-2.96,0.6
				c-2.07,0-3.71-0.67-4.91-2.02c-1-1.14-1.51-2.51-1.51-4.12c0-1.69,0.61-3.12,1.83-4.27c1.22-1.16,2.74-1.73,4.58-1.73
				c1.11,0,2.11,0.21,3,0.64C546.94,94.23,547.67,94.83,548.24,95.6z"/>
			<path class="st3" d="M556.27,93.16c1.8,0,3.3,0.58,4.51,1.75c1.21,1.17,1.82,2.61,1.82,4.32c0,1.69-0.6,3.13-1.81,4.31
				c-1.21,1.18-2.68,1.77-4.42,1.77c-1.76,0-3.24-0.59-4.45-1.76s-1.82-2.59-1.82-4.26c0-1.11,0.28-2.14,0.83-3.09
				c0.55-0.95,1.3-1.69,2.26-2.23C554.13,93.43,555.16,93.16,556.27,93.16z M556.32,94.29c-0.88,0-1.71,0.22-2.5,0.67
				c-0.79,0.45-1.4,1.05-1.84,1.8c-0.44,0.75-0.66,1.6-0.66,2.53c0,1.37,0.49,2.54,1.47,3.48c0.98,0.95,2.16,1.42,3.53,1.42
				c0.92,0,1.77-0.22,2.56-0.65c0.78-0.44,1.4-1.03,1.83-1.79c0.44-0.76,0.66-1.6,0.66-2.52c0-0.92-0.22-1.75-0.66-2.49
				c-0.44-0.74-1.06-1.34-1.85-1.78C558.06,94.51,557.21,94.29,556.32,94.29z"/>
			<path class="st3" d="M563.75,102.87l1.01-0.59c0.71,1.27,1.53,1.91,2.46,1.91c0.4,0,0.77-0.09,1.12-0.27
				c0.35-0.18,0.61-0.42,0.8-0.73c0.18-0.3,0.27-0.63,0.27-0.97c0-0.39-0.13-0.77-0.4-1.14c-0.37-0.51-1.05-1.13-2.03-1.86
				c-0.99-0.73-1.6-1.26-1.85-1.58c-0.42-0.54-0.63-1.13-0.63-1.77c0-0.5,0.12-0.96,0.37-1.38c0.25-0.41,0.6-0.74,1.04-0.98
				c0.45-0.24,0.94-0.36,1.46-0.36c0.56,0,1.08,0.14,1.57,0.4c0.49,0.27,1,0.77,1.54,1.49l-0.97,0.72
				c-0.45-0.58-0.83-0.96-1.14-1.14s-0.66-0.28-1.03-0.28c-0.48,0-0.87,0.14-1.17,0.43c-0.3,0.28-0.46,0.63-0.46,1.04
				c0,0.25,0.05,0.5,0.16,0.73c0.11,0.24,0.3,0.49,0.59,0.77c0.16,0.15,0.67,0.53,1.53,1.16c1.03,0.74,1.73,1.4,2.11,1.97
				c0.38,0.58,0.57,1.16,0.57,1.74c0,0.84-0.33,1.57-0.98,2.19c-0.65,0.62-1.45,0.93-2.38,0.93c-0.72,0-1.37-0.19-1.96-0.56
				C564.78,104.37,564.24,103.75,563.75,102.87z"/>
		</g>
	</g>
	<g>
		<path class="st4" d="M111.52,0"/>
		<g>
			<g>
				<path class="st5" d="M86.94,61.53H51.01c-0.16,1.76-0.27,3.53-0.27,5.34c0,1.64,0.12,3.25,0.25,4.86h35.95V61.53z"/>
				<polygon class="st5" points="110.51,61.53 116.81,71.72 119.7,71.72 119.7,61.53 				"/>
				<path class="st5" d="M86.94,77.41h-35.2c0.61,3.39,1.53,6.67,2.69,9.83h32.51V77.41z"/>
				<polygon class="st5" points="100.08,61.53 97.57,61.53 97.57,71.72 106.38,71.72 				"/>
				<polygon class="st5" points="107,55.84 119.7,55.84 119.7,46.02 100.93,46.02 				"/>
				<path class="st5" d="M130.33,55.84h38.88c-0.64-3.39-1.6-6.66-2.79-9.83h-36.09V55.84z"/>
				<path class="st5" d="M51.81,55.84h35.13v-8.81c0-0.36,0.14-0.68,0.21-1.02H54.6C53.41,49.18,52.45,52.45,51.81,55.84z"/>
				<path class="st5" d="M163.93,40.33c-9.81-19.47-30.02-32.86-53.42-32.86s-43.61,13.4-53.42,32.86H163.93z"/>
				<path class="st5" d="M56.87,92.93c9.72,19.72,30.06,33.33,53.65,33.33s43.92-13.61,53.65-33.33H56.87z"/>
				<path class="st5" d="M170.01,61.53h-39.68v10.2h39.7c0.13-1.61,0.25-3.22,0.25-4.86C170.29,65.06,170.17,63.29,170.01,61.53z"/>
				<polygon class="st5" points="109.89,77.41 97.57,77.41 97.57,87.24 115.97,87.24 				"/>
				<path class="st5" d="M169.29,77.41h-38.96v9.83h36.26C167.76,84.08,168.68,80.8,169.29,77.41z"/>
			</g>
			<g>
				<path class="st6" d="M52.92,40.67c0,0-5.48-0.07-10.38,0.01c-4.87,0.09-6.84-0.02-7.24-0.01c-2.47,0.04-2.38,4.45-0.07,4.6
					c0.03,0,0.04,0.06,0.07,0.08c0.23,0.16,15.54-0.02,15.86,0C51.69,43.76,52.27,42.2,52.92,40.67z"/>
				<path class="st6" d="M48.55,56.21c0,0-11.28,0.02-13.79,0c-2.52-0.02-2.52,4.36,0,4.53c1.32,0.09,13.18,0,13.18,0
					c0.05-0.57,0.11-1.14,0.18-1.71C48.24,58.08,48.38,57.14,48.55,56.21z"/>
				<path class="st6" d="M47.87,72.33c0,0-10.68,0.06-13.61,0c-2.57-0.05-2.49,4.77,0,4.74c3.56-0.04,14.14,0,14.14,0
					C48.16,75.53,47.99,73.95,47.87,72.33z"/>
				<path class="st6" d="M50.94,87.55c0,0-12.89,0.11-15.64,0c-2.17-0.09-2.33,4.93,0,4.89c6.47-0.09,17.4,0,17.4,0
					C52.05,90.86,51.46,89.23,50.94,87.55z"/>
			</g>
		</g>
	</g>
</g>
</svg>
